<svg id="visual" viewBox="0 0 900 600" width="900" height="600" xmlns="http://www.w3.org/2000/svg" xmlns:xlink="http://www.w3.org/1999/xlink" version="1.1"><g transform="translate(452.11939149155455 330.6646103066887)"><path d="M134.5 -162.2C181.6 -120.8 232.1 -85.3 246.1 -38.6C260 8.1 237.4 66.1 203.3 110.2C169.3 154.4 123.8 184.8 77.3 193.5C30.8 202.2 -16.6 189.2 -60 170.8C-103.4 152.5 -142.6 128.7 -181.2 90.7C-219.7 52.6 -257.6 0.3 -254.3 -49.4C-251 -99.1 -206.5 -146.1 -157.2 -187C-108 -228 -54 -263 -5.1 -256.9C43.7 -250.8 87.4 -203.5 134.5 -162.2" fill="#1A531B"></path></g></svg>