<svg id="visual" viewBox="0 0 900 600" width="900" height="600" xmlns="http://www.w3.org/2000/svg" xmlns:xlink="http://www.w3.org/1999/xlink" version="1.1"><rect x="0" y="0" width="900" height="600" fill="#FFFFFF"></rect><defs><linearGradient id="grad1_0" x1="33.3%" y1="0%" x2="100%" y2="100%"><stop offset="20%" stop-color="#ffffff" stop-opacity="1"></stop><stop offset="80%" stop-color="#ffffff" stop-opacity="1"></stop></linearGradient></defs><defs><linearGradient id="grad2_0" x1="0%" y1="0%" x2="66.7%" y2="100%"><stop offset="20%" stop-color="#ffffff" stop-opacity="1"></stop><stop offset="80%" stop-color="#ffffff" stop-opacity="1"></stop></linearGradient></defs><g transform="translate(900, 0)"><path d="M0 324.5C-36.3 325.2 -72.6 325.9 -100.3 308.6C-128 291.3 -147.1 256.1 -167.5 230.6C-187.9 205 -209.7 189.2 -233 169.3C-256.3 149.4 -281.2 125.3 -296.7 96.4C-312.2 67.5 -318.4 33.8 -324.5 0L0 0Z" fill="#dcd7c4"></path></g><g transform="translate(0, 600)"><path d="M0 -324.5C29.1 -308.5 58.2 -292.5 93 -286.3C127.8 -280.1 168.2 -283.7 190.7 -262.5C213.2 -241.4 217.8 -195.5 222.5 -161.6C227.2 -127.8 232.1 -105.9 249.2 -81C266.2 -56 295.4 -28 324.5 0L0 0Z" fill="#dcd7c4"></path></g></svg>