<svg id="visual" viewBox="0 0 900 600" width="900" height="600" xmlns="http://www.w3.org/2000/svg" xmlns:xlink="http://www.w3.org/1999/xlink" version="1.1"><g transform="translate(439.25285839772516 285.2485181952418)"><path d="M209.7 -242.3C257.5 -209.9 272 -130.2 296.5 -44.4C321 41.3 355.3 133.2 320.4 176.8C285.5 220.5 181.2 216 94.6 238C8 260 -61 308.5 -130.4 306C-199.8 303.4 -269.6 249.7 -297.6 181.4C-325.5 113.2 -311.4 30.4 -299 -54.9C-286.6 -140.2 -275.7 -227.9 -226.1 -260C-176.6 -292.1 -88.3 -268.5 -3.6 -264.2C81 -259.9 162 -274.7 209.7 -242.3" fill="#C5A888"></path></g></svg>