<svg id="visual" viewBox="0 0 900 600" width="900" height="600" xmlns="http://www.w3.org/2000/svg" xmlns:xlink="http://www.w3.org/1999/xlink" version="1.1"><g transform="translate(510.16724383212534 302.89168327091437)"><path d="M217.4 -297.5C258.4 -269.4 252.4 -174.7 246.2 -101.7C240 -28.7 233.6 22.6 214.6 66.2C195.6 109.9 163.9 146 126.1 171.5C88.2 197 44.1 212 -21.5 241.5C-87 271.1 -174 315.1 -238.3 298.2C-302.7 281.3 -344.4 203.4 -361.6 123.8C-378.8 44.2 -371.5 -37.1 -346.4 -111.9C-321.2 -186.8 -278.2 -255.2 -217.5 -277C-156.7 -298.7 -78.4 -273.9 4.9 -280.6C88.2 -287.4 176.3 -325.7 217.4 -297.5" fill="#C9D9C3"></path></g></svg>